<svg width="174" height="23" viewBox="0 0 174 23" fill="none" xmlns="http://www.w3.org/2000/svg">
<path d="M16.3182 9.27273C16.3182 11.1534 15.9659 12.7642 15.2614 14.1051C14.5625 15.4403 13.608 16.4631 12.3977 17.1733C11.1932 17.8835 9.8267 18.2386 8.2983 18.2386C6.76989 18.2386 5.40057 17.8835 4.19034 17.1733C2.9858 16.4574 2.03125 15.4318 1.3267 14.0966C0.627841 12.7557 0.278409 11.1477 0.278409 9.27273C0.278409 7.39205 0.627841 5.78409 1.3267 4.44886C2.03125 3.10795 2.9858 2.08239 4.19034 1.37216C5.40057 0.661931 6.76989 0.306818 8.2983 0.306818C9.8267 0.306818 11.1932 0.661931 12.3977 1.37216C13.608 2.08239 14.5625 3.10795 15.2614 4.44886C15.9659 5.78409 16.3182 7.39205 16.3182 9.27273ZM13.1392 9.27273C13.1392 7.94886 12.9318 6.83239 12.517 5.92329C12.108 5.00852 11.5398 4.31818 10.8125 3.85227C10.0852 3.38068 9.24716 3.14489 8.2983 3.14489C7.34943 3.14489 6.51136 3.38068 5.78409 3.85227C5.05682 4.31818 4.4858 5.00852 4.07102 5.92329C3.66193 6.83239 3.45739 7.94886 3.45739 9.27273C3.45739 10.5966 3.66193 11.7159 4.07102 12.6307C4.4858 13.5398 5.05682 14.2301 5.78409 14.7017C6.51136 15.1676 7.34943 15.4006 8.2983 15.4006C9.24716 15.4006 10.0852 15.1676 10.8125 14.7017C11.5398 14.2301 12.108 13.5398 12.517 12.6307C12.9318 11.7159 13.1392 10.5966 13.1392 9.27273ZM22.2564 10.3295V18H19.1712V4.90909H22.12V7.13352H22.2734C22.5746 6.40057 23.0547 5.81818 23.7138 5.38636C24.3786 4.95455 25.1996 4.73864 26.1768 4.73864C27.0803 4.73864 27.8672 4.93182 28.5376 5.31818C29.2138 5.70455 29.7365 6.2642 30.1058 6.99716C30.4808 7.73011 30.6655 8.61932 30.6598 9.66477V18H27.5746V10.142C27.5746 9.26705 27.3473 8.58239 26.8928 8.08807C26.4439 7.59375 25.8217 7.34659 25.0263 7.34659C24.4865 7.34659 24.0064 7.46591 23.5859 7.70455C23.1712 7.9375 22.8445 8.27557 22.6058 8.71875C22.3729 9.16193 22.2564 9.69886 22.2564 10.3295ZM39.5916 18.2557C38.2791 18.2557 37.1456 17.983 36.1911 17.4375C35.2422 16.8864 34.5121 16.108 34.0007 15.1023C33.4893 14.0909 33.2337 12.9006 33.2337 11.5312C33.2337 10.1847 33.4893 9.00284 34.0007 7.9858C34.5178 6.96307 35.2393 6.16761 36.1655 5.59943C37.0916 5.02557 38.1797 4.73864 39.4297 4.73864C40.2365 4.73864 40.9979 4.86932 41.7138 5.13068C42.4354 5.38636 43.0717 5.78409 43.6229 6.32386C44.1797 6.86364 44.6172 7.55114 44.9354 8.38636C45.2536 9.21591 45.4126 10.2045 45.4126 11.3523V12.2983H34.6825V10.2188H42.4553C42.4496 9.62784 42.3217 9.10227 42.0717 8.64205C41.8217 8.17614 41.4723 7.80966 41.0234 7.54261C40.5803 7.27557 40.0632 7.14205 39.4723 7.14205C38.8416 7.14205 38.2876 7.29545 37.8104 7.60227C37.3331 7.90341 36.9609 8.30114 36.6939 8.79545C36.4325 9.28409 36.299 9.82102 36.2933 10.4062V12.2216C36.2933 12.983 36.4325 13.6364 36.7109 14.1818C36.9893 14.7216 37.3786 15.1364 37.8786 15.4261C38.3786 15.7102 38.9638 15.8523 39.6342 15.8523C40.0831 15.8523 40.4893 15.7898 40.853 15.6648C41.2166 15.5341 41.532 15.3438 41.799 15.0938C42.0661 14.8438 42.2678 14.5341 42.4041 14.1648L45.2848 14.4886C45.103 15.25 44.7564 15.9148 44.245 16.483C43.7393 17.0455 43.0916 17.483 42.3018 17.7955C41.5121 18.1023 40.6087 18.2557 39.5916 18.2557ZM51.108 0.545454V18H48.0227V0.545454H51.108ZM57.3658 10.3295V18H54.2805V0.545454H57.2976V7.13352H57.451C57.7578 6.39489 58.2322 5.8125 58.8743 5.38636C59.522 4.95455 60.3459 4.73864 61.3459 4.73864C62.255 4.73864 63.0476 4.92898 63.7237 5.30966C64.3999 5.69034 64.9226 6.24716 65.2919 6.98011C65.6669 7.71307 65.8544 8.60795 65.8544 9.66477V18H62.7692V10.142C62.7692 9.26136 62.5419 8.5767 62.0874 8.08807C61.6385 7.59375 61.0078 7.34659 60.1953 7.34659C59.6499 7.34659 59.1612 7.46591 58.7294 7.70455C58.3033 7.9375 57.968 8.27557 57.7237 8.71875C57.4851 9.16193 57.3658 9.69886 57.3658 10.3295ZM70.4482 22.9091C70.0277 22.9091 69.6385 22.875 69.2805 22.8068C68.9283 22.7443 68.647 22.6705 68.4368 22.5852L69.1527 20.1818C69.6016 20.3125 70.0021 20.375 70.3544 20.3693C70.7067 20.3636 71.0163 20.2528 71.2834 20.0369C71.5561 19.8267 71.7862 19.4744 71.9737 18.9801L72.2379 18.2727L67.4908 4.90909H70.7635L73.7805 14.7955H73.9169L76.9425 4.90909H80.2237L74.9822 19.5852C74.7379 20.2784 74.4141 20.8722 74.0107 21.3665C73.6072 21.8665 73.1129 22.2472 72.5277 22.5085C71.9482 22.7756 71.255 22.9091 70.4482 22.9091ZM92.7053 8.36932L89.8928 8.67614C89.8132 8.39205 89.674 8.125 89.4751 7.875C89.282 7.625 89.0206 7.4233 88.6911 7.26989C88.3615 7.11648 87.9581 7.03977 87.4808 7.03977C86.8388 7.03977 86.299 7.17898 85.8615 7.45739C85.4297 7.7358 85.2166 8.09659 85.2223 8.53977C85.2166 8.92045 85.3558 9.23011 85.6399 9.46875C85.9297 9.70739 86.407 9.90341 87.0717 10.0568L89.3047 10.5341C90.5433 10.8011 91.4638 11.2244 92.0661 11.804C92.674 12.3835 92.9808 13.142 92.9865 14.0795C92.9808 14.9034 92.7393 15.6307 92.2621 16.2614C91.7905 16.8864 91.1342 17.375 90.2933 17.7273C89.4524 18.0795 88.4865 18.2557 87.3956 18.2557C85.7933 18.2557 84.5036 17.9205 83.5263 17.25C82.549 16.5739 81.9666 15.6335 81.7791 14.429L84.7876 14.1392C84.924 14.7301 85.2138 15.1761 85.657 15.4773C86.1001 15.7784 86.6768 15.929 87.3871 15.929C88.12 15.929 88.7081 15.7784 89.1513 15.4773C89.6001 15.1761 89.8246 14.804 89.8246 14.3608C89.8246 13.9858 89.6797 13.6761 89.3899 13.4318C89.1058 13.1875 88.6626 13 88.0604 12.8693L85.8274 12.4006C84.5717 12.1392 83.6428 11.6989 83.0405 11.0795C82.4382 10.4545 82.1399 9.66477 82.1456 8.71023C82.1399 7.90341 82.3587 7.20455 82.8018 6.61364C83.2507 6.01705 83.8729 5.55682 84.6683 5.23295C85.4695 4.90341 86.3928 4.73864 87.4382 4.73864C88.9723 4.73864 90.1797 5.06534 91.0604 5.71875C91.9467 6.37216 92.495 7.25568 92.7053 8.36932ZM100.853 3.19602V0.545454H114.779V3.19602H109.384V18H106.248V3.19602H100.853ZM121.139 18.2557C119.861 18.2557 118.753 17.9744 117.815 17.4119C116.878 16.8494 116.151 16.0625 115.634 15.0511C115.122 14.0398 114.866 12.858 114.866 11.5057C114.866 10.1534 115.122 8.96875 115.634 7.9517C116.151 6.93466 116.878 6.14489 117.815 5.58239C118.753 5.01989 119.861 4.73864 121.139 4.73864C122.418 4.73864 123.526 5.01989 124.463 5.58239C125.401 6.14489 126.125 6.93466 126.636 7.9517C127.153 8.96875 127.412 10.1534 127.412 11.5057C127.412 12.858 127.153 14.0398 126.636 15.0511C126.125 16.0625 125.401 16.8494 124.463 17.4119C123.526 17.9744 122.418 18.2557 121.139 18.2557ZM121.156 15.7841C121.849 15.7841 122.429 15.5937 122.895 15.2131C123.361 14.8267 123.707 14.3097 123.935 13.6619C124.168 13.0142 124.284 12.2926 124.284 11.4972C124.284 10.696 124.168 9.97159 123.935 9.32386C123.707 8.67045 123.361 8.15057 122.895 7.7642C122.429 7.37784 121.849 7.18466 121.156 7.18466C120.446 7.18466 119.855 7.37784 119.384 7.7642C118.918 8.15057 118.568 8.67045 118.335 9.32386C118.108 9.97159 117.994 10.696 117.994 11.4972C117.994 12.2926 118.108 13.0142 118.335 13.6619C118.568 14.3097 118.918 14.8267 119.384 15.2131C119.855 15.5937 120.446 15.7841 121.156 15.7841ZM130.031 18V4.90909H133.022V7.09091H133.158C133.397 6.33523 133.806 5.75284 134.386 5.34375C134.971 4.92898 135.638 4.72159 136.388 4.72159C136.559 4.72159 136.749 4.73011 136.96 4.74716C137.175 4.75852 137.354 4.77841 137.496 4.80682V7.64489C137.366 7.59943 137.158 7.55966 136.874 7.52557C136.596 7.4858 136.326 7.46591 136.065 7.46591C135.502 7.46591 134.996 7.58807 134.548 7.83239C134.104 8.07102 133.755 8.40341 133.499 8.82955C133.244 9.25568 133.116 9.74716 133.116 10.304V18H130.031ZM139.546 18V4.90909H142.538V7.09091H142.674C142.913 6.33523 143.322 5.75284 143.901 5.34375C144.487 4.92898 145.154 4.72159 145.904 4.72159C146.075 4.72159 146.265 4.73011 146.475 4.74716C146.691 4.75852 146.87 4.77841 147.012 4.80682V7.64489C146.881 7.59943 146.674 7.55966 146.39 7.52557C146.112 7.4858 145.842 7.46591 145.58 7.46591C145.018 7.46591 144.512 7.58807 144.063 7.83239C143.62 8.07102 143.271 8.40341 143.015 8.82955C142.759 9.25568 142.631 9.74716 142.631 10.304V18H139.546ZM154.318 18.2557C153.006 18.2557 151.872 17.983 150.918 17.4375C149.969 16.8864 149.239 16.108 148.727 15.1023C148.216 14.0909 147.96 12.9006 147.96 11.5312C147.96 10.1847 148.216 9.00284 148.727 7.9858C149.244 6.96307 149.966 6.16761 150.892 5.59943C151.818 5.02557 152.906 4.73864 154.156 4.73864C154.963 4.73864 155.724 4.86932 156.44 5.13068C157.162 5.38636 157.798 5.78409 158.349 6.32386C158.906 6.86364 159.344 7.55114 159.662 8.38636C159.98 9.21591 160.139 10.2045 160.139 11.3523V12.2983H149.409V10.2188H157.182C157.176 9.62784 157.048 9.10227 156.798 8.64205C156.548 8.17614 156.199 7.80966 155.75 7.54261C155.307 7.27557 154.79 7.14205 154.199 7.14205C153.568 7.14205 153.014 7.29545 152.537 7.60227C152.06 7.90341 151.688 8.30114 151.42 8.79545C151.159 9.28409 151.026 9.82102 151.02 10.4062V12.2216C151.02 12.983 151.159 13.6364 151.438 14.1818C151.716 14.7216 152.105 15.1364 152.605 15.4261C153.105 15.7102 153.69 15.8523 154.361 15.8523C154.81 15.8523 155.216 15.7898 155.58 15.6648C155.943 15.5341 156.259 15.3438 156.526 15.0938C156.793 14.8438 156.994 14.5341 157.131 14.1648L160.011 14.4886C159.83 15.25 159.483 15.9148 158.972 16.483C158.466 17.0455 157.818 17.483 157.028 17.7955C156.239 18.1023 155.335 18.2557 154.318 18.2557ZM173.096 8.36932L170.283 8.67614C170.204 8.39205 170.065 8.125 169.866 7.875C169.673 7.625 169.411 7.4233 169.082 7.26989C168.752 7.11648 168.349 7.03977 167.871 7.03977C167.229 7.03977 166.69 7.17898 166.252 7.45739C165.82 7.7358 165.607 8.09659 165.613 8.53977C165.607 8.92045 165.746 9.23011 166.031 9.46875C166.32 9.70739 166.798 9.90341 167.462 10.0568L169.695 10.5341C170.934 10.8011 171.854 11.2244 172.457 11.804C173.065 12.3835 173.371 13.142 173.377 14.0795C173.371 14.9034 173.13 15.6307 172.653 16.2614C172.181 16.8864 171.525 17.375 170.684 17.7273C169.843 18.0795 168.877 18.2557 167.786 18.2557C166.184 18.2557 164.894 17.9205 163.917 17.25C162.94 16.5739 162.357 15.6335 162.17 14.429L165.178 14.1392C165.315 14.7301 165.604 15.1761 166.048 15.4773C166.491 15.7784 167.067 15.929 167.778 15.929C168.511 15.929 169.099 15.7784 169.542 15.4773C169.991 15.1761 170.215 14.804 170.215 14.3608C170.215 13.9858 170.07 13.6761 169.781 13.4318C169.496 13.1875 169.053 13 168.451 12.8693L166.218 12.4006C164.962 12.1392 164.033 11.6989 163.431 11.0795C162.829 10.4545 162.531 9.66477 162.536 8.71023C162.531 7.90341 162.749 7.20455 163.192 6.61364C163.641 6.01705 164.263 5.55682 165.059 5.23295C165.86 4.90341 166.783 4.73864 167.829 4.73864C169.363 4.73864 170.57 5.06534 171.451 5.71875C172.337 6.37216 172.886 7.25568 173.096 8.36932Z" fill="#282828"/>
</svg>
